<svg width="18" height="20" viewBox="0 0 18 20" fill="none" xmlns="http://www.w3.org/2000/svg">
<path d="M9 0.5C4.313 0.5 0.5 4.313 0.5 9C0.5 13.983 5.129 17.041 8.192 19.064L8.722 19.416C8.806 19.472 8.90299 19.5 8.99899 19.5C9.09499 19.5 9.192 19.472 9.276 19.416L9.806 19.064C12.869 17.041 17.498 13.983 17.498 9C17.5 4.313 13.687 0.5 9 0.5ZM9.256 18.23L9 18.3999L8.744 18.23C5.859 16.324 1.5 13.445 1.5 9C1.5 4.864 4.864 1.5 9 1.5C13.136 1.5 16.5 4.864 16.5 9C16.5 13.445 12.141 16.325 9.256 18.23ZM9 6C7.346 6 6 7.346 6 9C6 10.654 7.346 12 9 12C10.654 12 12 10.654 12 9C12 7.346 10.654 6 9 6ZM9 11C7.897 11 7 10.103 7 9C7 7.897 7.897 7 9 7C10.103 7 11 7.897 11 9C11 10.103 10.103 11 9 11Z" fill="#25314C"/>
</svg>
