<svg width="22" height="19" viewBox="0 0 22 19" fill="none" xmlns="http://www.w3.org/2000/svg">
<path d="M11.75 15C11.75 15.414 11.414 15.75 11 15.75H4C1.582 15.75 0.25 14.418 0.25 12V4C0.25 1.582 1.582 0.25 4 0.25H16C18.418 0.25 19.75 1.582 19.75 4V8C19.75 8.414 19.414 8.75 19 8.75C18.586 8.75 18.25 8.414 18.25 8V4C18.25 2.423 17.577 1.75 16 1.75H4C2.423 1.75 1.75 2.423 1.75 4V12C1.75 13.577 2.423 14.25 4 14.25H11C11.414 14.25 11.75 14.586 11.75 15ZM3 8C3 8.552 3.448 9 4 9C4.552 9 5 8.552 5 8C5 7.448 4.552 7 4 7C3.448 7 3 7.448 3 8ZM13.75 8C13.75 10.068 12.068 11.75 10 11.75C7.932 11.75 6.25 10.068 6.25 8C6.25 5.932 7.932 4.25 10 4.25C12.068 4.25 13.75 5.932 13.75 8ZM12.25 8C12.25 6.759 11.241 5.75 10 5.75C8.759 5.75 7.75 6.759 7.75 8C7.75 9.241 8.759 10.25 10 10.25C11.241 10.25 12.25 9.241 12.25 8ZM21.75 14.5C21.75 16.844 19.843 18.75 17.5 18.75C15.157 18.75 13.25 16.844 13.25 14.5C13.25 12.156 15.157 10.25 17.5 10.25C19.843 10.25 21.75 12.156 21.75 14.5ZM20.25 14.5C20.25 12.984 19.017 11.75 17.5 11.75C15.983 11.75 14.75 12.984 14.75 14.5C14.75 16.016 15.983 17.25 17.5 17.25C19.017 17.25 20.25 16.016 20.25 14.5ZM18.25 14.189V13.187C18.25 12.773 17.914 12.437 17.5 12.437C17.086 12.437 16.75 12.773 16.75 13.187V14.499C16.75 14.698 16.829 14.889 16.97 15.029L17.907 15.966C18.053 16.112 18.245 16.186 18.437 16.186C18.629 16.186 18.821 16.113 18.967 15.967C19.26 15.674 19.26 15.199 18.967 14.906L18.25 14.189Z" fill="#25314C"/>
</svg>
