<svg width="4" height="20" viewBox="0 0 4 20" fill="none" xmlns="http://www.w3.org/2000/svg">
<path d="M2.02002 3.5C1.19102 3.5 0.515015 2.829 0.515015 2C0.515015 1.171 1.18201 0.5 2.01001 0.5H2.02002C2.84902 0.5 3.52002 1.171 3.52002 2C3.52002 2.829 2.84902 3.5 2.02002 3.5ZM3.52002 10C3.52002 9.171 2.84902 8.5 2.02002 8.5H2.01001C1.18201 8.5 0.515015 9.171 0.515015 10C0.515015 10.829 1.19102 11.5 2.02002 11.5C2.84902 11.5 3.52002 10.829 3.52002 10ZM3.52002 18C3.52002 17.171 2.84902 16.5 2.02002 16.5H2.01001C1.18201 16.5 0.515015 17.171 0.515015 18C0.515015 18.829 1.19102 19.5 2.02002 19.5C2.84902 19.5 3.52002 18.829 3.52002 18Z" fill="#25314C"/>
</svg>
