<svg width="16" height="20" viewBox="0 0 16 20" fill="none" xmlns="http://www.w3.org/2000/svg">
<path d="M12 6.25H4.75V5C4.75 4.139 5.08905 3.3201 5.69604 2.7041C6.32004 2.0891 7.138 1.75 8 1.75C9.485 1.75 10.778 2.75106 11.144 4.18506C11.246 4.58606 11.6599 4.82705 12.0549 4.72705C12.4569 4.62405 12.6999 4.21594 12.5969 3.81494C12.0629 1.71594 10.172 0.25 8 0.25C6.742 0.25 5.55099 0.742043 4.63599 1.64404C3.74199 2.55004 3.25 3.742 3.25 5V6.30396C1.312 6.56096 0.25 7.846 0.25 10V16C0.25 18.418 1.582 19.75 4 19.75H12C14.418 19.75 15.75 18.418 15.75 16V10C15.75 7.582 14.418 6.25 12 6.25ZM14.25 16C14.25 17.577 13.577 18.25 12 18.25H4C2.423 18.25 1.75 17.577 1.75 16V10C1.75 8.423 2.423 7.75 4 7.75H12C13.577 7.75 14.25 8.423 14.25 10V16ZM9.27002 12C9.27002 12.412 9.058 12.7601 8.75 12.9871V15C8.75 15.414 8.414 15.75 8 15.75C7.586 15.75 7.25 15.414 7.25 15V12.9619C6.962 12.7329 6.76489 12.395 6.76489 12C6.76489 11.31 7.32001 10.75 8.01001 10.75H8.02002C8.71002 10.75 9.27002 11.31 9.27002 12Z" fill="#25314C"/>
</svg>
