<svg width="20" height="20" viewBox="0 0 20 20" fill="none" xmlns="http://www.w3.org/2000/svg">
<path d="M12.378 18.378C11.877 19.237 10.988 19.75 10 19.75C9.01202 19.75 8.12403 19.237 7.62203 18.378C7.41403 18.021 7.53405 17.561 7.89205 17.353C8.24905 17.144 8.70805 17.265 8.91805 17.623C9.37705 18.41 10.623 18.41 11.082 17.623C11.291 17.265 11.751 17.144 12.108 17.353C12.466 17.561 12.586 18.021 12.378 18.378ZM16.75 10.5V8C16.75 7.586 16.414 7.25 16 7.25C15.586 7.25 15.25 7.586 15.25 8V10.5C15.25 12.437 15.998 14.158 16.615 15.25H8.00002C7.58602 15.25 7.25002 15.586 7.25002 16C7.25002 16.414 7.58602 16.75 8.00002 16.75H18C18.288 16.75 18.551 16.585 18.676 16.325C18.801 16.065 18.766 15.757 18.586 15.531C18.567 15.509 16.75 13.206 16.75 10.5ZM19.5301 1.53L4.53005 16.53L1.53005 19.53C1.38405 19.676 1.19202 19.75 1.00002 19.75C0.808023 19.75 0.615994 19.677 0.469994 19.53C0.176994 19.237 0.176994 18.762 0.469994 18.469L2.19003 16.749H2.00002C1.71202 16.749 1.45004 16.584 1.32504 16.324C1.20004 16.065 1.23405 15.757 1.41305 15.531C1.43205 15.508 3.24905 13.188 3.24905 10.499V7C3.24905 3.278 6.27705 0.25 9.99905 0.25C12.29 0.25 14.404 1.421 15.64 3.299L18.469 0.470001C18.762 0.177001 19.2371 0.177001 19.5301 0.470001C19.8231 0.763001 19.8231 1.237 19.5301 1.53ZM14.545 4.395C13.616 2.778 11.889 1.75 10 1.75C7.10502 1.75 4.75002 4.105 4.75002 7V10.5C4.75002 12.437 4.00203 14.158 3.38503 15.25H3.68905L14.545 4.395Z" fill="#25314C"/>
</svg>
