<svg width="20" height="20" viewBox="0 0 20 20" fill="none" xmlns="http://www.w3.org/2000/svg">
<path d="M19.229 11.8679C17.913 14.0639 14.96 17.75 10 17.75C9.03701 17.75 8.08608 17.604 7.17408 17.315C6.77908 17.19 6.56105 16.769 6.68605 16.374C6.81005 15.978 7.23496 15.762 7.62696 15.885C8.39196 16.127 9.19001 16.25 10 16.25C14.222 16.25 16.7901 13.02 17.9441 11.094C18.3521 10.418 18.3521 9.58101 17.9461 8.90701C17.6001 8.32401 17.177 7.72798 16.72 7.17898C16.455 6.85998 16.4991 6.38707 16.8181 6.12307C17.1381 5.85807 17.61 5.90199 17.875 6.21999C18.381 6.82899 18.8509 7.49199 19.2329 8.13699C19.9259 9.28399 19.926 10.7159 19.229 11.8679ZM8.063 12.9981L1.53004 19.531C1.38404 19.677 1.19201 19.751 1.00001 19.751C0.80801 19.751 0.615981 19.678 0.469981 19.531C0.176981 19.238 0.176981 18.763 0.469981 18.47L3.64503 15.2949C2.31703 14.1499 1.35205 12.837 0.769053 11.866C0.075053 10.716 0.0750061 9.28408 0.771006 8.13308C2.08701 5.93708 5.04001 2.251 10 2.251C11.835 2.251 13.565 2.76994 15.155 3.78494L18.469 0.470971C18.762 0.177971 19.237 0.177971 19.53 0.470971C19.823 0.763971 19.823 1.23901 19.53 1.53201L8.06495 12.9971C8.06495 12.9971 8.06497 12.9981 8.06397 12.9981C8.06297 12.9981 8.063 12.9971 8.063 12.9981ZM7.6089 11.3311L11.3311 7.60891C10.9291 7.38191 10.478 7.251 10 7.251C8.48401 7.251 7.25099 8.484 7.25099 10.001C7.25099 10.478 7.3829 10.9291 7.6089 11.3311ZM4.70704 14.232L6.51905 12.4199C6.02405 11.7169 5.75099 10.882 5.75099 9.99905C5.75099 7.65605 7.65701 5.74905 10 5.74905C10.884 5.74905 11.7179 6.02211 12.4209 6.51711L14.052 4.88601C12.787 4.14501 11.432 3.74807 10 3.74807C5.77801 3.74807 3.20992 6.97808 2.05592 8.90408C1.64792 9.58008 1.64797 10.4171 2.05397 11.0911C2.59097 11.9881 3.48304 13.201 4.70704 14.232ZM12.708 10.4351C12.528 11.5951 11.594 12.53 10.436 12.709C10.027 12.772 9.74609 13.155 9.80909 13.564C9.86709 13.935 10.1861 14.2 10.5491 14.2C10.5871 14.2 10.6261 14.1969 10.6641 14.1909C12.4911 13.9089 13.908 12.4921 14.19 10.6641C14.253 10.2541 13.973 9.87213 13.563 9.80813C13.163 9.74713 12.771 10.0251 12.708 10.4351Z" fill="#25314C"/>
</svg>
