<svg width="20" height="20" viewBox="0 0 20 20" fill="none" xmlns="http://www.w3.org/2000/svg">
<path d="M10 0C4.477 0 0 4.477 0 10C0 15.523 4.477 20 10 20C15.523 20 20 15.523 20 10C20 4.477 15.523 0 10 0ZM14.8311 9.39301L13.031 11.15C12.899 11.278 12.839 11.464 12.87 11.645L13.282 14.05C13.365 14.538 12.8549 14.91 12.4189 14.68L10.259 13.543C10.097 13.458 9.90394 13.458 9.74194 13.543L7.58398 14.679C7.14598 14.909 6.63599 14.536 6.71899 14.048L7.13098 11.645C7.16198 11.463 7.10197 11.278 6.96997 11.15L5.17004 9.39301C4.83904 9.07001 5.02103 8.507 5.47803 8.44L7.96802 8.078C8.14902 8.052 8.30596 7.93701 8.38696 7.77301L9.46594 5.58398C9.68494 5.13998 10.316 5.13998 10.535 5.58398L11.614 7.77301C11.695 7.93801 11.852 8.052 12.033 8.078L14.5229 8.44C14.9799 8.506 15.1621 9.07001 14.8311 9.39301Z" fill="#25314C"/>
</svg>
