<svg width="20" height="16" viewBox="0 0 20 16" fill="none" xmlns="http://www.w3.org/2000/svg">
<path d="M19.7501 8.00002C19.7501 8.41402 19.4141 8.75002 19.0001 8.75002H2.81115L8.53112 14.47C8.82412 14.763 8.82412 15.238 8.53112 15.531C8.38512 15.677 8.19309 15.751 8.00109 15.751C7.80909 15.751 7.61706 15.678 7.47106 15.531L0.471062 8.53103C0.402063 8.46203 0.347197 8.37913 0.309197 8.28713C0.233197 8.10413 0.233197 7.89713 0.309197 7.71413C0.347197 7.62213 0.402063 7.53899 0.471062 7.46999L7.47106 0.469994C7.76406 0.176994 8.2391 0.176994 8.5321 0.469994C8.8251 0.762994 8.8251 1.23803 8.5321 1.53103L2.81213 7.251H19.0001C19.4141 7.25 19.7501 7.58602 19.7501 8.00002Z" fill="#25314C"/>
</svg>
