<svg width="18" height="20" viewBox="0 0 18 20" fill="none" xmlns="http://www.w3.org/2000/svg">
<path d="M14 2.25H13.73C13.633 0.996 12.821 0.25 11.5 0.25H6.5C5.179 0.25 4.36702 0.996 4.27002 2.25H4C1.582 2.25 0.25 3.582 0.25 6V16C0.25 18.418 1.582 19.75 4 19.75H14C16.418 19.75 17.75 18.418 17.75 16V6C17.75 3.582 16.418 2.25 14 2.25ZM5.75 2.5C5.75 1.911 5.911 1.75 6.5 1.75H11.5C12.089 1.75 12.25 1.911 12.25 2.5V3.5C12.25 4.089 12.089 4.25 11.5 4.25H6.5C5.911 4.25 5.75 4.089 5.75 3.5V2.5ZM16.25 16C16.25 17.577 15.577 18.25 14 18.25H4C2.423 18.25 1.75 17.577 1.75 16V6C1.75 4.423 2.423 3.75 4 3.75H4.27002C4.36702 5.004 5.179 5.75 6.5 5.75H11.5C12.821 5.75 13.633 5.004 13.73 3.75H14C15.577 3.75 16.25 4.423 16.25 6V16ZM12.75 10C12.75 10.414 12.414 10.75 12 10.75H6C5.586 10.75 5.25 10.414 5.25 10C5.25 9.586 5.586 9.25 6 9.25H12C12.414 9.25 12.75 9.586 12.75 10ZM10.75 14C10.75 14.414 10.414 14.75 10 14.75H6C5.586 14.75 5.25 14.414 5.25 14C5.25 13.586 5.586 13.25 6 13.25H10C10.414 13.25 10.75 13.586 10.75 14Z" fill="#25314C"/>
</svg>
