<svg width="40" height="40" viewBox="0 0 40 40" fill="none" xmlns="http://www.w3.org/2000/svg">
<path d="M7.16675 22.4997H18.75V34.4997C18.75 34.7764 18.5266 34.9997 18.2499 34.9997H11.6667C8.33333 34.9997 6.66667 33.333 6.66667 29.9997V22.9997C6.66667 22.723 6.89008 22.4997 7.16675 22.4997ZM32.8333 22.4997H21.25V34.4997C21.25 34.7764 21.4734 34.9997 21.7501 34.9997H28.3333C31.6667 34.9997 33.3333 33.333 33.3333 29.9997V22.9997C33.3333 22.723 33.1099 22.4997 32.8333 22.4997ZM35 14.1664V19.4997C35 19.7764 34.7766 19.9997 34.4999 19.9997H21.25V14.1664H18.75V19.9997H5.50008C5.22341 19.9997 5 19.7764 5 19.4997V14.1664C5 12.7864 6.12 11.6664 7.5 11.6664H9.2749C8.74324 10.6364 8.54502 9.40801 9.01835 8.07301C9.49002 6.74301 10.5666 5.64139 11.9132 5.21972C13.7766 4.63639 15.6933 5.24634 16.8667 6.67134C16.92 6.73634 18.795 9.23132 20.0016 10.8346C21.2066 9.23132 23.08 6.74133 23.125 6.68467C24.3067 5.248 26.2066 4.64298 28.065 5.20965C29.365 5.60798 30.4216 6.63803 30.9216 7.90303C31.475 9.30303 31.2817 10.5914 30.7284 11.6647H32.5033C33.8799 11.6664 35 12.7864 35 14.1664ZM17.4967 11.6664C16.3684 10.1664 15.005 8.35299 14.9133 8.23465C14.5317 7.76965 13.9633 7.49969 13.3333 7.49969C12.185 7.49969 11.25 8.43469 11.25 9.58302C11.25 10.7314 12.185 11.6664 13.3333 11.6664H17.4967ZM28.75 9.58302C28.75 8.43469 27.815 7.49969 26.6667 7.49969C26.0367 7.49969 25.4682 7.76964 25.0649 8.2613C24.9866 8.36464 23.6283 10.1697 22.5033 11.6664H26.6667C27.815 11.6664 28.75 10.7314 28.75 9.58302Z" fill="#FFEA01"/>
</svg>
