<svg width="20" height="19" viewBox="0 0 20 19" fill="none" xmlns="http://www.w3.org/2000/svg">
<path d="M9.99997 18.75C9.89397 18.75 9.78793 18.728 9.68893 18.683C9.36193 18.534 1.66598 14.965 0.431976 8.609C-0.0450242 6.15 0.433982 3.75098 1.71298 2.19298C2.74798 0.930984 4.23594 0.259967 6.01694 0.250967C6.02594 0.250967 6.03494 0.250967 6.04294 0.250967C8.07494 0.250967 9.31399 1.408 9.99899 2.393C10.687 1.404 11.9359 0.241967 13.9809 0.250967C15.7629 0.259967 17.2519 0.930984 18.2879 2.19298C19.5649 3.74998 20.0429 6.14898 19.5649 8.60998C18.3329 14.966 10.6359 18.536 10.3089 18.684C10.2119 18.728 10.106 18.75 9.99997 18.75ZM6.04196 1.74999C6.03596 1.74999 6.03099 1.74999 6.02499 1.74999C4.68699 1.75599 3.62702 2.22497 2.87302 3.14397C1.87402 4.36097 1.513 6.29699 1.905 8.32299C2.86 13.247 8.59297 16.447 9.99997 17.165C11.407 16.447 17.14 13.247 18.094 8.32299C18.488 6.29599 18.127 4.35997 17.13 3.14397C16.376 2.22597 15.3159 1.75797 13.9749 1.75097C13.9689 1.75097 13.963 1.75097 13.958 1.75097C11.586 1.75097 10.745 4.12799 10.711 4.22899C10.607 4.53199 10.3209 4.73797 10.0009 4.73797C9.99895 4.73797 9.99792 4.73797 9.99692 4.73797C9.67592 4.73697 9.38993 4.53198 9.28793 4.22698C9.25493 4.12698 8.41296 1.74999 6.04196 1.74999Z" fill="#25314C"/>
</svg>
