<svg width="20" height="22" viewBox="0 0 20 22" fill="none" xmlns="http://www.w3.org/2000/svg">
<path d="M10 21.7501C9.92 21.7501 9.83994 21.7371 9.76294 21.7111C8.17394 21.1811 0.25 18.1221 0.25 9.88805V4.00012C0.25 3.64312 0.502027 3.33401 0.853027 3.26501C5.73303 2.28901 7.46305 1.43111 9.65405 0.344109C9.86605 0.239109 10.146 0.225193 10.356 0.330193C12.517 1.41919 14.2239 2.28001 19.1479 3.26501C19.4989 3.33501 19.751 3.64312 19.751 4.00012V9.88903C19.751 18.123 11.827 21.182 10.238 21.712C10.16 21.737 10.08 21.7501 10 21.7501ZM1.75 4.61218V9.88805C1.75 16.7531 8.168 19.5482 10 20.2052C11.832 19.5482 18.25 16.7521 18.25 9.88805V4.61218C13.829 3.68718 11.9699 2.81901 10.0149 1.83801C7.93789 2.86501 6.135 3.69618 1.75 4.61218ZM10.71 11.6161C10.718 11.5961 10.798 11.4151 11.344 11.0521C12.328 10.3981 12.769 9.45912 12.584 8.40612C12.397 7.34712 11.528 6.47811 10.47 6.29211C9.69197 6.15611 8.90799 6.36511 8.31299 6.86511C7.71799 7.36511 7.375 8.09809 7.375 8.87609C7.375 9.29009 7.711 9.62609 8.125 9.62609C8.539 9.62609 8.875 9.29009 8.875 8.87609C8.875 8.54309 9.0211 8.22903 9.2771 8.01403C9.5361 7.79703 9.86996 7.70814 10.21 7.77013C10.652 7.84813 11.0289 8.22513 11.1069 8.66613C11.1569 8.95213 11.15 9.38007 10.512 9.80407C10.083 10.0901 9.49109 10.5391 9.28809 11.1371C9.15709 11.5241 9.36598 11.9332 9.75098 12.0712C9.83198 12.1002 9.91409 12.1132 9.99609 12.1132C10.3051 12.1122 10.597 11.9181 10.71 11.6161ZM11.02 14.0001C11.02 13.4481 10.573 13.0001 10.02 13.0001H10.01C9.45801 13.0001 9.01489 13.4481 9.01489 14.0001C9.01489 14.5521 9.46802 15.0001 10.02 15.0001C10.572 15.0001 11.02 14.5521 11.02 14.0001Z" fill="#25314C"/>
</svg>
