<svg xmlns="http://www.w3.org/2000/svg" viewBox="0 0 64 40"><rect width="64" height="40" rx="6" fill="#111"/><path fill="#fff" d="M20.9 22.2c.4-.5.7-1.2.6-1.9-.6 0-1.3.4-1.7.9-.4.4-.7 1.1-.6 1.8.7 0 1.3-.3 1.7-.8zM22 23c-.9-.1-1.7.5-2.1.5-.4 0-1.1-.5-1.8-.5-.9 0-1.8.5-2.3 1.3-1 1.6-.2 4 .7 5.3.4.6 1 1.4 1.7 1.3.7 0 .9-.4 1.7-.4.8 0 1 .4 1.7.4.7 0 1.2-.7 1.6-1.3.5-.7.7-1.5.7-1.5-.1 0-1.4-.5-1.4-2.2 0-1.3 1.1-2 1.2-2-.3-.2-1.1-.4-1.7-.5zM30.5 28.9V22.5h2.3c1.6 0 2.7 1.1 2.7 2.7 0 1.6-1.1 2.7-2.7 2.7h-1v1h-1.3zm1.3-5.2v2.9h.8c1 0 1.6-.6 1.6-1.5 0-.9-.6-1.4-1.6-1.4h-.8zM39.7 29c-1.1 0-1.9-.6-2-1.7h1.3c.1.5.4.8.9.8.5 0 .9-.3.9-.8 0-.4-.2-.7-.9-.9-.9-.3-1.6-.7-1.6-1.7 0-1 .8-1.6 1.9-1.6 1 0 1.8.6 1.9 1.6h-1.2c-.1-.4-.4-.6-.7-.6-.5 0-.7.3-.7.6 0 .4.2.6.9.8.9.3 1.6.7 1.6 1.8 0 1.1-.9 1.7-2 1.7z"/></svg>