<svg xmlns="http://www.w3.org/2000/svg" viewBox="0 0 64 40"><rect width="64" height="40" rx="6" fill="#fff"/><g transform="translate(6,10)"><path fill="#4285F4" d="M45.9,10.1c0-1.4-.1-2.4-.4-3.5H28v6.3h10.2c-.2 1.5-1.3 3.7-3.8 5.2l5.8 4.5c2.5-3.1 4.7-7.4 4.7-12.5z"/><path fill="#34A853" d="M28,30c5.2,0,9.6-1.7,12.8-4.7l-5.8-4.5c-1.7 1.2-4 1.9-7 1.9-5.4 0-9.9-3.6-11.5-8.5l-6 4.6C13.5,25.3,20.2,30,28,30z"/><path fill="#FBBC05" d="M16.5,14.2c-.5-1.4-.7-2.8-.7-4.2s.3-2.9.7-4.2l-6-4.6C9,4.1,8,7,8,10s1,5.9,2.5,8.8l6-4.6z"/><path fill="#EA4335" d="M28,1.5c3,0,5.1,1.3,6.2,2.4L39,-.6C35.5-2.5,32.2-4,28-4 20.2-4 13.5 .7 10.5 8.2l6 4.6C18.1,6.1,22.6,1.5,28,1.5z"/></g></svg>