<svg xmlns="http://www.w3.org/2000/svg" viewBox="0 0 64 40"><rect width="64" height="40" rx="6" fill="#1a237e"/><g fill="#fff" transform="translate(8,10)"><path d="M7.3 18H3.6L0 0h3l2.6 13.3L9 0h3.2z"/><path d="M12.2 0h3.1L13 18h-3z"/><path d="M27.7 5.5c-.7-.6-2-1.2-3.6-1.2-2 0-3.6 1-3.6 2.4 0 1 1.1 1.7 2 2.1l.9.4c.8.3 1.1.6 1.1 1 0 .6-.7 1-1.6 1-1 0-2.1-.3-3-.9l-.5 2.4c.8.4 2.1.7 3.5.7 3.3 0 5.4-1.6 5.4-4 0-1.3-.8-2.2-2.5-3l-.9-.4c-.8-.3-1.2-.6-1.2-1 0-.5.6-.9 1.6-.9.9 0 1.9.3 2.5.7z"/><path d="M31.5 18h-2.9L31.7 0h2.9z"/><path d="M39.8 0c-2.7 0-4.8 1.2-5.9 3.1L36.7 0h-3l-2.7 18h3l1-6.7c.5-2.9 2.4-4.8 4.7-4.8 1.5 0 2.3.7 2.3 2.1 0 .4-.1 1-.2 1.5L40.6 18h3l1.4-9.4c.1-.7.2-1.4.2-2 0-3.6-1.9-6.6-5.4-6.6z"/></g></svg>